<?xml version="1.0" encoding="UTF-8"?>
<!--Generator: Apple Native CoreSVG 175-->
<!DOCTYPE svg
PUBLIC "-//W3C//DTD SVG 1.1//EN"
       "http://www.w3.org/Graphics/SVG/1.1/DTD/svg11.dtd">
<svg version="1.1" xmlns="http://www.w3.org/2000/svg" xmlns:xlink="http://www.w3.org/1999/xlink" width="3300" height="2200">
 <!--glyph: "uni100664.medium", point size: 100.0, font version: "17.1d1e1", template writer version: "65.1"-->
 <style>.hierarchical-0:secondary {fill:#4D4D4D}
.hierarchical-1:primary {fill:#212121}

.SFSymbolsPreview212121 {fill:#212121;opacity:1.0}
.SFSymbolsPreview4D4D4D {fill:#4D4D4D;opacity:1.0}
</style>
 <g id="Notes">
  <rect height="2200" id="artboard" style="fill:white;opacity:1" width="3300" x="0" y="0"/>
  <line style="fill:none;stroke:black;opacity:1;stroke-width:0.5;" x1="263" x2="3036" y1="292" y2="292"/>
  <text style="stroke:none;fill:black;font-family:sans-serif;font-size:13;font-weight:bold;" transform="matrix(1 0 0 1 263 322)">Weight/Scale Variations</text>
  <text style="stroke:none;fill:black;font-family:sans-serif;font-size:13;text-anchor:middle;" transform="matrix(1 0 0 1 559.711 322)">Ultralight</text>
  <text style="stroke:none;fill:black;font-family:sans-serif;font-size:13;text-anchor:middle;" transform="matrix(1 0 0 1 856.422 322)">Thin</text>
  <text style="stroke:none;fill:black;font-family:sans-serif;font-size:13;text-anchor:middle;" transform="matrix(1 0 0 1 1153.13 322)">Light</text>
  <text style="stroke:none;fill:black;font-family:sans-serif;font-size:13;text-anchor:middle;" transform="matrix(1 0 0 1 1449.84 322)">Regular</text>
  <text style="stroke:none;fill:black;font-family:sans-serif;font-size:13;text-anchor:middle;" transform="matrix(1 0 0 1 1746.56 322)">Medium</text>
  <text style="stroke:none;fill:black;font-family:sans-serif;font-size:13;text-anchor:middle;" transform="matrix(1 0 0 1 2043.27 322)">Semibold</text>
  <text style="stroke:none;fill:black;font-family:sans-serif;font-size:13;text-anchor:middle;" transform="matrix(1 0 0 1 2339.98 322)">Bold</text>
  <text style="stroke:none;fill:black;font-family:sans-serif;font-size:13;text-anchor:middle;" transform="matrix(1 0 0 1 2636.69 322)">Heavy</text>
  <text style="stroke:none;fill:black;font-family:sans-serif;font-size:13;text-anchor:middle;" transform="matrix(1 0 0 1 2933.4 322)">Black</text>
  <line style="fill:none;stroke:black;opacity:1;stroke-width:0.5;" x1="263" x2="3036" y1="1903" y2="1903"/>
  <g transform="matrix(1 0 0 1 263 1933)">
   <path d="M9.24805 0.830078Q10.8691 0.830078 12.2949 0.214844Q13.7207-0.400391 14.8096-1.49414Q15.8984-2.58789 16.5186-4.01367Q17.1387-5.43945 17.1387-7.05078Q17.1387-8.66211 16.5186-10.0879Q15.8984-11.5137 14.8047-12.6074Q13.7109-13.7012 12.2852-14.3164Q10.8594-14.9316 9.23828-14.9316Q7.62695-14.9316 6.20117-14.3164Q4.77539-13.7012 3.69141-12.6074Q2.60742-11.5137 1.9873-10.0879Q1.36719-8.66211 1.36719-7.05078Q1.36719-5.43945 1.9873-4.01367Q2.60742-2.58789 3.69629-1.49414Q4.78516-0.400391 6.21094 0.214844Q7.63672 0.830078 9.24805 0.830078ZM9.24805-0.654297Q7.91992-0.654297 6.7627-1.14746Q5.60547-1.64062 4.73145-2.51953Q3.85742-3.39844 3.36426-4.56055Q2.87109-5.72266 2.87109-7.05078Q2.87109-8.37891 3.35938-9.54102Q3.84766-10.7031 4.72168-11.582Q5.5957-12.4609 6.75293-12.9541Q7.91016-13.4473 9.23828-13.4473Q10.5762-13.4473 11.7334-12.9541Q12.8906-12.4609 13.7695-11.582Q14.6484-10.7031 15.1465-9.54102Q15.6445-8.37891 15.6445-7.05078Q15.6445-5.72266 15.1514-4.56055Q14.6582-3.39844 13.7842-2.51953Q12.9102-1.64062 11.748-1.14746Q10.5859-0.654297 9.24805-0.654297ZM5.6543-7.05078Q5.6543-6.72852 5.85938-6.52832Q6.06445-6.32812 6.40625-6.32812L8.51562-6.32812L8.51562-4.20898Q8.51562-3.88672 8.71094-3.67676Q8.90625-3.4668 9.23828-3.4668Q9.56055-3.4668 9.77051-3.67676Q9.98047-3.88672 9.98047-4.20898L9.98047-6.32812L12.0898-6.32812Q12.4219-6.32812 12.627-6.52832Q12.832-6.72852 12.832-7.05078Q12.832-7.38281 12.627-7.58789Q12.4219-7.79297 12.0898-7.79297L9.98047-7.79297L9.98047-9.90234Q9.98047-10.2344 9.77051-10.4443Q9.56055-10.6543 9.23828-10.6543Q8.90625-10.6543 8.71094-10.4443Q8.51562-10.2344 8.51562-9.90234L8.51562-7.79297L6.40625-7.79297Q6.06445-7.79297 5.85938-7.58789Q5.6543-7.38281 5.6543-7.05078Z"/>
  </g>
  <g transform="matrix(1 0 0 1 281.867 1933)">
   <path d="M11.709 2.91016Q13.75 2.91016 15.5518 2.12891Q17.3535 1.34766 18.7305-0.0292969Q20.1074-1.40625 20.8887-3.20801Q21.6699-5.00977 21.6699-7.05078Q21.6699-9.0918 20.8887-10.8936Q20.1074-12.6953 18.7305-14.0723Q17.3535-15.4492 15.5469-16.2305Q13.7402-17.0117 11.6992-17.0117Q9.6582-17.0117 7.85645-16.2305Q6.05469-15.4492 4.68262-14.0723Q3.31055-12.6953 2.5293-10.8936Q1.74805-9.0918 1.74805-7.05078Q1.74805-5.00977 2.5293-3.20801Q3.31055-1.40625 4.6875-0.0292969Q6.06445 1.34766 7.86621 2.12891Q9.66797 2.91016 11.709 2.91016ZM11.709 1.25Q9.98047 1.25 8.47656 0.605469Q6.97266-0.0390625 5.83496-1.17676Q4.69727-2.31445 4.05762-3.81836Q3.41797-5.32227 3.41797-7.05078Q3.41797-8.7793 4.05762-10.2832Q4.69727-11.7871 5.83008-12.9297Q6.96289-14.0723 8.4668-14.7119Q9.9707-15.3516 11.6992-15.3516Q13.4277-15.3516 14.9316-14.7119Q16.4355-14.0723 17.5781-12.9297Q18.7207-11.7871 19.3652-10.2832Q20.0098-8.7793 20.0098-7.05078Q20.0098-5.32227 19.3701-3.81836Q18.7305-2.31445 17.5928-1.17676Q16.4551-0.0390625 14.9463 0.605469Q13.4375 1.25 11.709 1.25ZM7.17773-7.05078Q7.17773-6.69922 7.41211-6.47461Q7.64648-6.25 8.01758-6.25L10.8887-6.25L10.8887-3.36914Q10.8887-2.99805 11.1133-2.76855Q11.3379-2.53906 11.6895-2.53906Q12.0605-2.53906 12.29-2.76855Q12.5195-2.99805 12.5195-3.36914L12.5195-6.25L15.4004-6.25Q15.7715-6.25 16.001-6.47461Q16.2305-6.69922 16.2305-7.05078Q16.2305-7.42188 16.001-7.65137Q15.7715-7.88086 15.4004-7.88086L12.5195-7.88086L12.5195-10.752Q12.5195-11.1328 12.29-11.3623Q12.0605-11.5918 11.6895-11.5918Q11.3379-11.5918 11.1133-11.3574Q10.8887-11.123 10.8887-10.752L10.8887-7.88086L8.01758-7.88086Q7.63672-7.88086 7.40723-7.65137Q7.17773-7.42188 7.17773-7.05078Z"/>
  </g>
  <g transform="matrix(1 0 0 1 305.646 1933)">
   <path d="M14.9707 5.66406Q17.0605 5.66406 18.96 5.01465Q20.8594 4.36523 22.4512 3.19336Q24.043 2.02148 25.2197 0.429688Q26.3965-1.16211 27.0459-3.06641Q27.6953-4.9707 27.6953-7.05078Q27.6953-9.14062 27.0459-11.04Q26.3965-12.9395 25.2197-14.5312Q24.043-16.123 22.4512-17.2998Q20.8594-18.4766 18.9551-19.126Q17.0508-19.7754 14.9609-19.7754Q12.8711-19.7754 10.9717-19.126Q9.07227-18.4766 7.48535-17.2998Q5.89844-16.123 4.72168-14.5312Q3.54492-12.9395 2.90039-11.04Q2.25586-9.14062 2.25586-7.05078Q2.25586-4.9707 2.90527-3.06641Q3.55469-1.16211 4.72656 0.429688Q5.89844 2.02148 7.49023 3.19336Q9.08203 4.36523 10.9814 5.01465Q12.8809 5.66406 14.9707 5.66406ZM14.9707 3.84766Q13.1641 3.84766 11.5283 3.2959Q9.89258 2.74414 8.53516 1.74805Q7.17773 0.751953 6.17676-0.610352Q5.17578-1.97266 4.62891-3.6084Q4.08203-5.24414 4.08203-7.05078Q4.08203-8.86719 4.62891-10.5029Q5.17578-12.1387 6.17188-13.501Q7.16797-14.8633 8.52539-15.8594Q9.88281-16.8555 11.5186-17.4023Q13.1543-17.9492 14.9609-17.9492Q16.7773-17.9492 18.4131-17.4023Q20.0488-16.8555 21.4111-15.8594Q22.7734-14.8633 23.7695-13.501Q24.7656-12.1387 25.3174-10.5029Q25.8691-8.86719 25.8691-7.05078Q25.8789-5.24414 25.332-3.6084Q24.7852-1.97266 23.7842-0.610352Q22.7832 0.751953 21.4209 1.74805Q20.0586 2.74414 18.4229 3.2959Q16.7871 3.84766 14.9707 3.84766ZM9.19922-7.05078Q9.19922-6.66992 9.45801-6.4209Q9.7168-6.17188 10.1172-6.17188L14.0625-6.17188L14.0625-2.2168Q14.0625-1.81641 14.3115-1.55762Q14.5605-1.29883 14.9512-1.29883Q15.3516-1.29883 15.6104-1.55273Q15.8691-1.80664 15.8691-2.2168L15.8691-6.17188L19.8242-6.17188Q20.2246-6.17188 20.4785-6.4209Q20.7324-6.66992 20.7324-7.05078Q20.7324-7.46094 20.4785-7.71484Q20.2246-7.96875 19.8242-7.96875L15.8691-7.96875L15.8691-11.9141Q15.8691-12.3242 15.6104-12.583Q15.3516-12.8418 14.9512-12.8418Q14.5605-12.8418 14.3115-12.583Q14.0625-12.3242 14.0625-11.9141L14.0625-7.96875L10.1172-7.96875Q9.70703-7.96875 9.45312-7.71484Q9.19922-7.46094 9.19922-7.05078Z"/>
  </g>
  <text style="stroke:none;fill:black;font-family:sans-serif;font-size:13;font-weight:bold;" transform="matrix(1 0 0 1 263 1953)">Design Variations</text>
  <text style="stroke:none;fill:black;font-family:sans-serif;font-size:13;" transform="matrix(1 0 0 1 263 1971)">Symbols are supported in up to nine weights and three scales.</text>
  <text style="stroke:none;fill:black;font-family:sans-serif;font-size:13;" transform="matrix(1 0 0 1 263 1989)">For optimal layout with text and other symbols, vertically align</text>
  <text style="stroke:none;fill:black;font-family:sans-serif;font-size:13;" transform="matrix(1 0 0 1 263 2007)">symbols with the adjacent text.</text>
  <line style="fill:none;stroke:#00AEEF;stroke-width:0.5;opacity:1.0;" x1="776" x2="776" y1="1919" y2="1933"/>
  <g transform="matrix(1 0 0 1 776 1933)">
   <path d="M3.31055 0.15625Q3.70117 0.15625 3.91602-0.00976562Q4.13086-0.175781 4.26758-0.585938L5.52734-4.0332L11.2891-4.0332L12.5488-0.585938Q12.6855-0.175781 12.9004-0.00976562Q13.1152 0.15625 13.4961 0.15625Q13.8867 0.15625 14.1162-0.0585938Q14.3457-0.273438 14.3457-0.644531Q14.3457-0.869141 14.2383-1.17188L9.6582-13.3691Q9.48242-13.8184 9.17969-14.043Q8.87695-14.2676 8.4082-14.2676Q7.5-14.2676 7.17773-13.3789L2.59766-1.16211Q2.49023-0.859375 2.49023-0.634766Q2.49023-0.263672 2.70996-0.0537109Q2.92969 0.15625 3.31055 0.15625ZM6.00586-5.51758L8.37891-12.0898L8.42773-12.0898L10.8008-5.51758Z"/>
  </g>
  <line style="fill:none;stroke:#00AEEF;stroke-width:0.5;opacity:1.0;" x1="793.197" x2="793.197" y1="1919" y2="1933"/>
  <text style="stroke:none;fill:black;font-family:sans-serif;font-size:13;font-weight:bold;" transform="matrix(1 0 0 1 776 1953)">Margins</text>
  <text style="stroke:none;fill:black;font-family:sans-serif;font-size:13;" transform="matrix(1 0 0 1 776 1971)">Leading and trailing margins on the left and right side of each symbol</text>
  <text style="stroke:none;fill:black;font-family:sans-serif;font-size:13;" transform="matrix(1 0 0 1 776 1989)">can be adjusted by modifying the x-location of the margin guidelines.</text>
  <text style="stroke:none;fill:black;font-family:sans-serif;font-size:13;" transform="matrix(1 0 0 1 776 2007)">Modifications are automatically applied proportionally to all</text>
  <text style="stroke:none;fill:black;font-family:sans-serif;font-size:13;" transform="matrix(1 0 0 1 776 2025)">scales and weights.</text>
  <g transform="matrix(1 0 0 1 1289 1933)">
   <path d="M2.8418 1.86523L4.54102 3.57422Q5.18555 4.22852 5.90332 4.17969Q6.62109 4.13086 7.31445 3.35938L18.0078-8.42773L17.041-9.4043L6.42578 2.27539Q6.16211 2.57812 5.89355 2.61719Q5.625 2.65625 5.27344 2.30469L4.10156 1.14258Q3.75 0.791016 3.79395 0.522461Q3.83789 0.253906 4.14062-0.0195312L15.6152-10.8203L14.6387-11.7871L3.04688-0.898438Q2.30469-0.214844 2.25098 0.498047Q2.19727 1.21094 2.8418 1.86523ZM9.25781-16.3281Q8.94531-16.0254 8.90625-15.6348Q8.86719-15.2441 9.04297-14.9512Q9.21875-14.6777 9.55566-14.541Q9.89258-14.4043 10.3809-14.5215Q11.4746-14.7754 12.5977-14.7314Q13.7207-14.6875 14.7949-13.9844L14.209-12.5293Q13.9551-11.9043 14.0674-11.4404Q14.1797-10.9766 14.5801-10.5664L16.875-8.25195Q17.2363-7.88086 17.5781-7.82227Q17.9199-7.76367 18.3398-7.8418L19.4043-8.03711L20.0684-7.36328L20.0293-6.80664Q20-6.43555 20.1221-6.12305Q20.2441-5.81055 20.6055-5.44922L21.3672-4.70703Q21.7285-4.3457 22.1533-4.33105Q22.5781-4.31641 22.9297-4.66797L25.8398-7.58789Q26.1914-7.93945 26.1816-8.35449Q26.1719-8.76953 25.8105-9.13086L25.0391-9.89258Q24.6875-10.2539 24.3799-10.3857Q24.0723-10.5176 23.7109-10.4883L23.1348-10.4395L22.4902-11.0742L22.7344-12.1973Q22.832-12.6172 22.6953-12.9834Q22.5586-13.3496 22.1191-13.7891L19.9219-15.9766Q18.6719-17.2168 17.2607-17.8369Q15.8496-18.457 14.4189-18.4814Q12.9883-18.5059 11.665-17.959Q10.3418-17.4121 9.25781-16.3281ZM10.752-15.957Q11.6602-16.6211 12.7002-16.9043Q13.7402-17.1875 14.8047-17.085Q15.8691-16.9824 16.8701-16.5137Q17.8711-16.0449 18.7012-15.2051L21.1328-12.793Q21.3086-12.6172 21.3525-12.4512Q21.3965-12.2852 21.3379-12.0312L21.0156-10.5469L22.5195-9.0625L23.5059-9.12109Q23.6914-9.13086 23.7891-9.09668Q23.8867-9.0625 24.0332-8.91602L24.6094-8.33984L22.168-5.89844L21.5918-6.47461Q21.4453-6.62109 21.4062-6.71875Q21.3672-6.81641 21.377-7.01172L21.4453-7.98828L19.9512-9.47266L18.4277-9.21875Q18.1836-9.16992 18.042-9.2041Q17.9004-9.23828 17.7148-9.41406L15.7129-11.416Q15.5176-11.5918 15.4932-11.7529Q15.4688-11.9141 15.5859-12.1875L16.4648-14.2773Q15.293-15.3711 13.8281-15.791Q12.3633-16.2109 10.8398-15.7617Q10.7227-15.7324 10.6885-15.8057Q10.6543-15.8789 10.752-15.957Z"/>
  </g>
  <text style="stroke:none;fill:black;font-family:sans-serif;font-size:13;font-weight:bold;" transform="matrix(1 0 0 1 1289 1953)">Exporting</text>
  <text style="stroke:none;fill:black;font-family:sans-serif;font-size:13;" transform="matrix(1 0 0 1 1289 1971)">Symbols should be outlined when exporting to ensure the</text>
  <text style="stroke:none;fill:black;font-family:sans-serif;font-size:13;" transform="matrix(1 0 0 1 1289 1989)">design is preserved when submitting to Xcode.</text>
  <text id="template-version" style="stroke:none;fill:black;font-family:sans-serif;font-size:13;text-anchor:end;" transform="matrix(1 0 0 1 3036 1933)">Template v.3.0</text>
  <text style="stroke:none;fill:black;font-family:sans-serif;font-size:13;text-anchor:end;" transform="matrix(1 0 0 1 3036 1951)">Requires Xcode 13 or greater</text>
  <text id="descriptive-name" style="stroke:none;fill:black;font-family:sans-serif;font-size:13;text-anchor:end;" transform="matrix(1 0 0 1 3036 1969)">Generated from signature</text>
  <text style="stroke:none;fill:black;font-family:sans-serif;font-size:13;text-anchor:end;" transform="matrix(1 0 0 1 3036 1987)">Typeset at 100 points</text>
  <text style="stroke:none;fill:black;font-family:sans-serif;font-size:13;" transform="matrix(1 0 0 1 263 726)">Small</text>
  <text style="stroke:none;fill:black;font-family:sans-serif;font-size:13;" transform="matrix(1 0 0 1 263 1156)">Medium</text>
  <text style="stroke:none;fill:black;font-family:sans-serif;font-size:13;" transform="matrix(1 0 0 1 263 1586)">Large</text>
 </g>
 <g id="Guides">
  <g id="H-reference" style="fill:#27AAE1;stroke:none;" transform="matrix(1 0 0 1 339 696)">
   <path d="M0.993347 0L3.6377 0L29.3282-67.1326L30.0301-67.1326L30.0301-70.459L28.1227-70.459ZM11.6882-24.4797L46.9818-24.4797L46.2311-26.7288L12.4382-26.7288ZM55.1193 0L57.7637 0L30.6381-70.459L29.4327-70.459L29.4327-67.1326Z"/>
  </g>
  <line id="Baseline-S" style="fill:none;stroke:#27AAE1;opacity:1;stroke-width:0.5;" x1="263" x2="3036" y1="696" y2="696"/>
  <line id="Capline-S" style="fill:none;stroke:#27AAE1;opacity:1;stroke-width:0.5;" x1="263" x2="3036" y1="625.541" y2="625.541"/>
  <g id="H-reference" style="fill:#27AAE1;stroke:none;" transform="matrix(1 0 0 1 339 1126)">
   <path d="M0.993347 0L3.6377 0L29.3282-67.1326L30.0301-67.1326L30.0301-70.459L28.1227-70.459ZM11.6882-24.4797L46.9818-24.4797L46.2311-26.7288L12.4382-26.7288ZM55.1193 0L57.7637 0L30.6381-70.459L29.4327-70.459L29.4327-67.1326Z"/>
  </g>
  <line id="Baseline-M" style="fill:none;stroke:#27AAE1;opacity:1;stroke-width:0.5;" x1="263" x2="3036" y1="1126" y2="1126"/>
  <line id="Capline-M" style="fill:none;stroke:#27AAE1;opacity:1;stroke-width:0.5;" x1="263" x2="3036" y1="1055.54" y2="1055.54"/>
  <g id="H-reference" style="fill:#27AAE1;stroke:none;" transform="matrix(1 0 0 1 339 1556)">
   <path d="M0.993347 0L3.6377 0L29.3282-67.1326L30.0301-67.1326L30.0301-70.459L28.1227-70.459ZM11.6882-24.4797L46.9818-24.4797L46.2311-26.7288L12.4382-26.7288ZM55.1193 0L57.7637 0L30.6381-70.459L29.4327-70.459L29.4327-67.1326Z"/>
  </g>
  <line id="Baseline-L" style="fill:none;stroke:#27AAE1;opacity:1;stroke-width:0.5;" x1="263" x2="3036" y1="1556" y2="1556"/>
  <line id="Capline-L" style="fill:none;stroke:#27AAE1;opacity:1;stroke-width:0.5;" x1="263" x2="3036" y1="1485.54" y2="1485.54"/>
  <line id="left-margin-Ultralight-S" style="fill:none;stroke:#00AEEF;stroke-width:0.5;opacity:1.0;" x1="497.325" x2="497.325" y1="600.785" y2="720.121"/>
  <line id="right-margin-Ultralight-S" style="fill:none;stroke:#00AEEF;stroke-width:0.5;opacity:1.0;" x1="622.097" x2="622.097" y1="600.785" y2="720.121"/>
  <line id="left-margin-Regular-S" style="fill:none;stroke:#00AEEF;stroke-width:0.5;opacity:1.0;" x1="1381.51" x2="1381.51" y1="600.785" y2="720.121"/>
  <line id="right-margin-Regular-S" style="fill:none;stroke:#00AEEF;stroke-width:0.5;opacity:1.0;" x1="1518.18" x2="1518.18" y1="600.785" y2="720.121"/>
  <line id="left-margin-Black-S" style="fill:none;stroke:#00AEEF;stroke-width:0.5;opacity:1.0;" x1="2861.4" x2="2861.4" y1="600.785" y2="720.121"/>
  <line id="right-margin-Black-S" style="fill:none;stroke:#00AEEF;stroke-width:0.5;opacity:1.0;" x1="3005.4" x2="3005.4" y1="600.785" y2="720.121"/>
 </g>
 <g id="Symbols">
  <g id="Black-S" transform="matrix(1 0 0 1 2861.4 696)">
   <path class="hierarchical-0:secondary SFSymbolsPreview4D4D4D" d="M14.3555 4.78516L129.639 4.78516Q131.592 4.78516 132.91 3.32031Q134.229 1.85547 134.229 0Q134.229-1.95312 132.91-3.34473Q131.592-4.73633 129.639-4.73633L14.3555-4.73633Q12.4023-4.73633 11.084-3.32031Q9.76562-1.9043 9.76562 0Q9.76562 1.80664 11.1084 3.2959Q12.4512 4.78516 14.3555 4.78516ZM11.4258-9.52148Q12.5488-8.34961 14.1602-8.34961Q15.7715-8.34961 16.8945-9.47266L29.9805-22.5586Q31.1523-23.7305 31.1279-25.293Q31.1035-26.8555 29.9805-28.0273Q28.8574-29.1992 27.2461-29.1992Q25.6348-29.1992 24.5117-28.0762L11.4258-14.9902Q10.2539-13.8184 10.2783-12.2559Q10.3027-10.6934 11.4258-9.52148ZM24.5117-9.52148Q25.6836-8.39844 27.2461-8.39844Q28.8086-8.39844 29.9805-9.52148Q31.1523-10.6445 31.1523-12.2559Q31.1523-13.8672 29.9805-15.0391L16.8945-28.0273Q15.7227-29.1504 14.1602-29.1504Q12.5977-29.1504 11.4258-28.0273Q10.2539-26.9043 10.2539-25.293Q10.2539-23.6816 11.4258-22.5098Z"/>
   <path class="hierarchical-1:primary SFSymbolsPreview212121" d="M50.0488 20.0195Q57.1777 20.0195 62.5732 16.6748Q67.9688 13.3301 71.6309 7.08008Q75.293 0.830078 77.1484-7.91016Q79.0039-16.6504 79.0039-27.4902Q79.0039-36.7188 76.9287-44.5557Q74.8535-52.3926 71.0693-58.1543Q67.2852-63.916 62.1338-67.1143Q56.9824-70.3125 50.8789-70.3125Q44.6777-70.3125 40.0635-67.6025Q35.4492-64.8926 32.9346-60.0586Q30.4199-55.2246 30.4199-48.7305Q30.4199-41.6504 33.0811-35.5469Q35.7422-29.4434 39.8438-24.5361Q43.9453-19.6289 48.3643-16.0645Q52.7832-12.5 56.3477-10.5469Q57.7637-9.76562 59.3262-9.76562Q61.377-9.76562 62.915-11.084Q64.4531-12.4023 64.4531-14.502Q64.4531-15.8203 63.8916-17.0166Q63.3301-18.2129 61.8164-19.2871Q59.2285-21.1426 55.7617-23.9258Q52.2949-26.709 48.999-30.4199Q45.7031-34.1309 43.5303-38.7451Q41.3574-43.3594 41.3574-48.877Q41.3574-52.002 42.5049-54.3457Q43.6523-56.6895 45.8008-58.0078Q47.9492-59.3262 50.9277-59.3262Q55.7617-59.3262 59.6436-55.2246Q63.5254-51.123 65.7959-43.9209Q68.0664-36.7188 68.0664-27.4902Q68.0664-19.5312 66.8213-12.8418Q65.5762-6.15234 63.3301-1.24512Q61.084 3.66211 58.0322 6.37207Q54.9805 9.08203 51.3672 9.08203Q49.4141 9.08203 48.291 7.83691Q47.168 6.5918 47.168 4.39453Q47.168 1.46484 49.2432-2.27051Q51.3184-6.00586 55.0293-9.83887Q58.7402-13.6719 63.6963-16.9189Q68.6523-20.166 74.4141-22.1436Q80.1758-24.1211 86.3281-24.1211Q86.9629-24.1211 86.9629-23.6816Q86.9629-21.875 85.9375-19.8975Q84.9121-17.9199 84.9121-14.8926Q84.9121-11.9141 86.8896-10.0586Q88.8672-8.20312 92.0898-8.20312Q94.7266-8.20312 97.4854-9.44824Q100.244-10.6934 102.808-12.5488Q105.371-14.4043 107.544-16.2598Q109.717-18.1152 111.206-19.3604Q112.695-20.6055 113.232-20.6055Q113.672-20.6055 113.989-19.5312Q114.307-18.457 114.819-16.8701Q115.332-15.2832 116.333-13.6963Q117.334-12.1094 119.165-11.0352Q120.996-9.96094 123.975-9.96094Q125.684-9.96094 127.49-10.4492Q129.297-10.9375 130.713-11.9141Q131.885-12.7441 132.617-13.9404Q133.35-15.1367 133.35-16.6992Q133.35-18.7988 132.007-20.459Q130.664-22.1191 128.467-22.1191Q127.588-22.1191 126.831-21.8018Q126.074-21.4844 125.635-21.4844Q125.098-21.4844 124.854-22.7051Q124.609-23.9258 124.268-25.708Q123.926-27.4902 123.12-29.2725Q122.314-31.0547 120.654-32.2754Q118.994-33.4961 116.113-33.4961Q113.867-33.4961 111.621-32.5195Q109.375-31.543 107.3-30.0781Q105.225-28.6133 103.491-27.1484Q101.758-25.6836 100.562-24.707Q99.3652-23.7305 98.8281-23.7305Q98.3887-23.7305 98.3887-24.2188Q98.3887-24.707 98.3887-25.0488Q98.3887-25.3906 98.3887-25.8789Q98.3887-30.2734 95.6543-32.666Q92.9199-35.0586 88.0859-35.0586Q79.3457-35.0586 71.4355-32.5928Q63.5254-30.127 56.958-25.9277Q50.3906-21.7285 45.5811-16.5039Q40.7715-11.2793 38.1348-5.71289Q35.498-0.146484 35.498 4.98047Q35.498 12.0605 39.3311 16.04Q43.1641 20.0195 50.0488 20.0195Z"/>
  </g>
  <g id="Regular-S" transform="matrix(1 0 0 1 1381.51 696)">
   <path class="hierarchical-0:secondary SFSymbolsPreview4D4D4D" d="M13.2812 0.292969L123.389 0.292969Q124.805 0.292969 125.854-0.732422Q126.904-1.75781 126.904-3.22266Q126.904-4.63867 125.854-5.68848Q124.805-6.73828 123.389-6.73828L13.2812-6.73828Q11.8652-6.73828 10.8154-5.68848Q9.76562-4.63867 9.76562-3.22266Q9.76562-1.75781 10.8154-0.732422Q11.8652 0.292969 13.2812 0.292969ZM12.1094-15.1855Q12.9395-14.3555 14.0625-14.3555Q15.1855-14.3555 16.0645-15.1855L29.1504-28.2227Q29.9805-29.0527 29.9805-30.2002Q29.9805-31.3477 29.1504-32.1777Q28.2715-33.0078 27.1484-33.0078Q26.0254-33.0078 25.1953-32.1777L12.1094-19.1406Q11.2305-18.3105 11.2305-17.1631Q11.2305-16.0156 12.1094-15.1855ZM25.1953-15.1855Q26.0254-14.3555 27.1484-14.3555Q28.2715-14.3555 29.1504-15.1855Q29.9805-16.0156 29.9805-17.1631Q29.9805-18.3105 29.1504-19.1406L16.0645-32.1777Q15.1855-33.0078 14.0625-33.0078Q12.9395-33.0078 12.1094-32.1777Q11.2305-31.3477 11.2305-30.2002Q11.2305-29.0527 12.1094-28.2227Z"/>
   <path class="hierarchical-1:primary SFSymbolsPreview212121" d="M48.6328 14.0137Q54.6875 14.0137 59.5947 10.4736Q64.502 6.93359 67.9932 0.683594Q71.4844-5.56641 73.3643-13.8916Q75.2441-22.2168 75.2441-31.7871Q75.2441-39.8926 73.4619-46.9727Q71.6797-54.0527 68.335-59.4727Q64.9902-64.8926 60.3027-67.9443Q55.6152-70.9961 49.7559-70.9961Q44.7754-70.9961 40.7471-68.4082Q36.7188-65.8203 34.3506-61.4258Q31.9824-57.0312 31.9824-51.6113Q31.9824-45.3613 34.3262-39.8682Q36.6699-34.375 40.5518-29.8096Q44.4336-25.2441 49.0967-21.7285Q53.7598-18.2129 58.3984-15.918Q59.1309-15.5273 60.0098-15.5273Q61.3281-15.5273 62.1582-16.4062Q62.9883-17.2852 62.9883-18.4082Q62.9883-19.1895 62.5732-19.9219Q62.1582-20.6543 61.2793-21.0938Q58.3984-22.5098 54.541-25.2441Q50.6836-27.9785 47.0215-31.8848Q43.3594-35.791 40.9668-40.7471Q38.5742-45.7031 38.5742-51.6113Q38.5742-55.2246 40.0635-58.1299Q41.5527-61.0352 44.0918-62.7197Q46.6309-64.4043 49.7559-64.4043Q55.5176-64.4043 59.7656-59.9854Q64.0137-55.5664 66.333-48.1445Q68.6523-40.7227 68.6523-31.7871Q68.6523-23.7305 67.1875-16.626Q65.7227-9.52148 63.1104-4.12598Q60.498 1.26953 56.9824 4.3457Q53.4668 7.42188 49.4141 7.42188Q46.8262 7.42188 45.6055 5.83496Q44.3848 4.24805 44.3848 1.70898Q44.3848-1.36719 46.2402-5.39551Q48.0957-9.42383 51.5137-13.5742Q54.9316-17.7246 59.668-21.2646Q64.4043-24.8047 70.1904-26.9775Q75.9766-29.1504 82.5195-29.1504Q84.1797-29.1504 84.1797-27.7832Q84.1797-25.1953 83.3252-23.2178Q82.4707-21.2402 82.4707-18.75Q82.4707-16.4551 83.9844-15.0879Q85.498-13.7207 87.8418-13.7207Q90.2344-13.7207 92.749-15.0391Q95.2637-16.3574 97.6562-18.3105Q100.049-20.2637 102.124-22.2168Q104.199-24.1699 105.786-25.4883Q107.373-26.8066 108.252-26.8066Q109.033-26.8066 109.302-25.6104Q109.57-24.4141 109.814-22.6562Q110.059-20.8984 110.767-19.1406Q111.475-17.3828 113.086-16.1865Q114.697-14.9902 117.676-14.9902Q118.896-14.9902 120.41-15.3564Q121.924-15.7227 123.096-16.5039Q123.877-17.041 124.365-17.8223Q124.854-18.6035 124.854-19.6289Q124.854-20.8496 124.121-21.7041Q123.389-22.5586 122.119-22.5586Q120.996-22.5586 120.142-22.0215Q119.287-21.4844 118.359-21.4844Q117.188-21.4844 116.724-22.7783Q116.26-24.0723 116.04-25.9521Q115.82-27.832 115.356-29.7363Q114.893-31.6406 113.745-32.9102Q112.598-34.1797 110.254-34.1797Q108.203-34.1797 105.786-32.9102Q103.369-31.6406 100.952-29.7607Q98.5352-27.8809 96.3867-25.9766Q94.2383-24.0723 92.6758-22.8027Q91.1133-21.5332 90.4297-21.5332Q89.9414-21.5332 89.9414-22.0215Q89.9414-22.8027 90.7227-24.8047Q91.5039-26.8066 91.5039-29.1504Q91.5039-32.1289 89.1846-33.9355Q86.8652-35.7422 83.0078-35.7422Q75.3418-35.7422 68.4814-33.1787Q61.6211-30.6152 55.957-26.3428Q50.293-22.0703 46.1914-16.9434Q42.0898-11.8164 39.8438-6.5918Q37.5977-1.36719 37.5977 3.02734Q37.5977 7.8125 40.2832 10.9131Q42.9688 14.0137 48.6328 14.0137Z"/>
  </g>
  <g id="Ultralight-S" transform="matrix(1 0 0 1 497.325 696)">
   <path class="hierarchical-0:secondary SFSymbolsPreview4D4D4D" d="M10.92-2.74963L113.898-2.74963Q114.361-2.74963 114.684-3.09372Q115.007-3.43781 115.007-3.85818Q115.007-4.32053 114.684-4.64401Q114.361-4.9675 113.898-4.9675L10.92-4.9675Q10.4576-4.9675 10.1345-4.64401Q9.8114-4.32053 9.8114-3.85818Q9.8114-3.43781 10.1345-3.09372Q10.4576-2.74963 10.92-2.74963ZM10.202-15.0948Q10.4874-14.7644 10.9291-14.7644Q11.3708-14.7644 11.705-15.0948L24.791-28.1319Q25.0763-28.4622 25.0763-28.8834Q25.0763-29.3045 24.791-29.6349Q24.4568-29.9652 24.015-29.9652Q23.5733-29.9652 23.288-29.6349L10.202-16.5977Q9.86786-16.2674 9.86786-15.8463Q9.86786-15.4251 10.202-15.0948ZM23.288-15.0948Q23.5733-14.7644 24.015-14.7644Q24.4568-14.7644 24.791-15.0948Q25.0763-15.4251 25.0763-15.8463Q25.0763-16.2674 24.791-16.5977L11.705-29.6349Q11.3708-29.9652 10.9291-29.9652Q10.4874-29.9652 10.202-29.6349Q9.86786-29.3045 9.86786-28.8834Q9.86786-28.4622 10.202-28.1319Z"/>
   <path class="hierarchical-1:primary SFSymbolsPreview212121" d="M45.681 12.7419Q51.1452 12.7419 55.6213 9.45168Q60.0975 6.1615 63.3614 0.274658Q66.6252-5.61218 68.3918-13.483Q70.1584-21.3539 70.1584-30.4703Q70.1584-38.6208 68.5123-45.4739Q66.8663-52.327 63.7939-57.3837Q60.7216-62.4405 56.4201-65.2424Q52.1187-68.0443 46.804-68.0443Q42.4141-68.0443 38.8626-65.7516Q35.3111-63.459 33.2153-59.5413Q31.1195-55.6236 31.1195-50.7484Q31.1195-46.1784 32.7141-41.6618Q34.3086-37.1452 37.5999-32.943Q40.8913-28.7407 46.0312-25.066Q51.1711-21.3913 58.3076-18.5066Q58.6769-18.3426 58.9653-18.3426Q59.4666-18.3426 59.7515-18.6539Q60.0365-18.9651 60.0365-19.3619Q60.0365-19.6892 59.8713-19.9673Q59.7061-20.2454 59.2812-20.4582Q54.1298-22.7821 49.4778-25.8343Q44.8257-28.8864 41.2319-32.634Q37.6381-36.3815 35.5633-40.9061Q33.4885-45.4308 33.4885-50.7484Q33.4885-54.9065 35.2501-58.2886Q37.0117-61.6707 40.0276-63.6734Q43.0435-65.6761 46.804-65.6761Q53.2471-65.6761 57.9491-60.9165Q62.6511-56.1569 65.2203-48.1674Q67.7895-40.1779 67.7895-30.4703Q67.7895-22.1863 66.2113-14.8094Q64.6332-7.43256 61.7481-1.76468Q58.8631 3.9032 54.8706 7.13844Q50.8781 10.3737 46.0083 10.3737Q42.4217 10.3737 40.7696 8.44612Q39.1174 6.51855 39.1174 3.66135Q39.1174-0.00457764 40.9275-4.53262Q42.7376-9.06067 46.1555-13.5971Q49.5735-18.1335 54.4231-21.946Q59.2728-25.7584 65.3542-28.0903Q71.4355-30.4222 78.569-30.4222Q82.6813-30.4222 82.6813-27.9198Q82.6813-25.7858 81.509-23.0362Q80.3368-20.2866 80.3368-17.7963Q80.3368-16.0461 81.3282-15.3603Q82.3196-14.6744 83.4824-14.6744Q85.466-14.6744 87.6404-16.1064Q89.8148-17.5385 92.0029-19.6278Q94.191-21.7171 96.2208-23.8064Q98.2506-25.8957 99.9512-27.3273Q101.652-28.759 102.803-28.759Q103.992-28.759 104.329-27.4948Q104.666-26.2306 104.706-24.3591Q104.745-22.4876 105-20.639Q105.254-18.7904 106.252-17.5262Q107.25-16.2621 109.593-16.2621Q110.587-16.2621 111.601-16.5371Q112.615-16.8121 113.741-17.4118Q114.114-17.6315 114.284-17.9359Q114.455-18.2404 114.455-18.4937Q114.455-18.9423 114.176-19.2974Q113.898-19.6526 113.446-19.6526Q112.868-19.6526 111.877-19.0926Q110.886-18.5326 109.731-18.5326Q108.196-18.5326 107.687-19.804Q107.178-21.0754 107.117-22.9553Q107.056-24.8352 106.887-26.7166Q106.718-28.598 105.935-29.8904Q105.151-31.1829 103.124-31.1829Q101.437-31.1829 99.3835-29.7543Q97.3297-28.3257 95.1626-26.2188Q92.9955-24.1119 90.8924-22.0261Q88.7894-19.9402 86.977-18.5116Q85.1646-17.083 83.8905-17.083Q82.7667-17.083 82.7667-18.2526Q82.7667-20.4872 83.9565-23.1022Q85.1463-25.7172 85.1463-27.9694Q85.1463-30.3123 83.5083-31.5514Q81.8703-32.7904 78.7392-32.7904Q71.1639-32.7904 64.6896-30.2952Q58.2153-27.8 53.0735-23.7091Q47.9317-19.6182 44.2841-14.7411Q40.6364-9.86404 38.6856-4.97971Q36.7348-0.0953674 36.7348 3.84445Q36.7348 7.76672 39.1479 10.2543Q41.5611 12.7419 45.681 12.7419Z"/>
  </g>
 </g>
</svg>
